<?xml version="1.0" encoding="UTF-8" standalone="no"?>
<!-- Created with Inkscape (http://www.inkscape.org/) -->

<svg
   xmlns:dc="http://purl.org/dc/elements/1.1/"
   xmlns:cc="http://creativecommons.org/ns#"
   xmlns:rdf="http://www.w3.org/1999/02/22-rdf-syntax-ns#"
   xmlns:svg="http://www.w3.org/2000/svg"
   xmlns="http://www.w3.org/2000/svg"
   xmlns:sodipodi="http://sodipodi.sourceforge.net/DTD/sodipodi-0.dtd"
   xmlns:inkscape="http://www.inkscape.org/namespaces/inkscape"
   width="744.09448819"
   height="1052.3622047"
   id="svg2"
   version="1.1"
   inkscape:version="0.48.4 r9939"
   sodipodi:docname="рисунок.svg">
  <defs
     id="defs4" />
  <sodipodi:namedview
     id="base"
     pagecolor="#ffffff"
     bordercolor="#666666"
     borderopacity="1.0"
     inkscape:pageopacity="0.0"
     inkscape:pageshadow="2"
     inkscape:zoom="0.70710678"
     inkscape:cx="253.2729"
     inkscape:cy="365.41199"
     inkscape:document-units="px"
     inkscape:current-layer="layer1"
     showgrid="false"
     inkscape:window-width="1280"
     inkscape:window-height="733"
     inkscape:window-x="0"
     inkscape:window-y="40"
     inkscape:window-maximized="1" />
  <metadata
     id="metadata7">
    <rdf:RDF>
      <cc:Work
         rdf:about="">
        <dc:format>image/svg+xml</dc:format>
        <dc:type
           rdf:resource="http://purl.org/dc/dcmitype/StillImage" />
      </cc:Work>
    </rdf:RDF>
  </metadata>
  <g
     inkscape:label="Layer 1"
     inkscape:groupmode="layer"
     id="layer1">
    <g
       id="g4349"
       transform="matrix(0.05849844,-0.49435183,0.49435183,0.05849844,-476.17543,756.29005)"
       style="fill:#1b5264;fill-opacity:1">
      <path
         sodipodi:nodetypes="ccccc"
         inkscape:connector-curvature="0"
         id="path4223"
         d="m 321.72625,1629.255 -21.8067,-382.4977 20.39982,-35.8969 20.39982,35.8969 z"
         style="fill:#1b5264;fill-opacity:1;stroke:none" />
      <path
         inkscape:transform-center-x="-30.653115"
         inkscape:transform-center-y="-207.9993"
         style="fill:#1b5264;fill-opacity:1;stroke:none"
         d="m 321.71868,1629.4007 17.92741,-382.6991 24.00808,-33.5909 16.57212,37.8167 z"
         id="path4225"
         inkscape:connector-curvature="0"
         sodipodi:nodetypes="ccccc" />
      <path
         sodipodi:nodetypes="ccccc"
         inkscape:connector-curvature="0"
         id="path4227"
         d="m 321.69819,1629.5345 54.63116,-379.2036 27.12582,-31.1276 12.86027,39.2345 z"
         style="fill:#1b5264;fill-opacity:1;stroke:none"
         inkscape:transform-center-y="-204.8861"
         inkscape:transform-center-x="-48.687445" />
      <path
         inkscape:transform-center-x="-67.33578"
         inkscape:transform-center-y="-199.50555"
         style="fill:#1b5264;fill-opacity:1;stroke:none"
         d="m 321.66248,1629.6737 93.03504,-371.6509 30.16012,-28.1976 8.79018,40.3418 z"
         id="path4229"
         inkscape:connector-curvature="0"
         sodipodi:nodetypes="ccccc" />
      <path
         sodipodi:nodetypes="ccccc"
         inkscape:connector-curvature="0"
         id="path4231"
         d="m 321.61448,1629.8045 129.33921,-360.6262 32.80128,-25.0762 4.75682,41.0134 z"
         style="fill:#1b5264;fill-opacity:1;stroke:none"
         inkscape:transform-center-y="-192.3017"
         inkscape:transform-center-x="-84.743765" />
      <path
         style="fill:#1b5264;fill-opacity:1;stroke:none"
         d="m 321.55069,1629.9356 165.94192,-345.3163 35.2188,-21.5494 0.48964,41.2856 z"
         id="path4233"
         inkscape:connector-curvature="0"
         sodipodi:nodetypes="ccccc" />
      <path
         sodipodi:nodetypes="ccccc"
         inkscape:connector-curvature="0"
         id="path4235"
         d="m 321.47359,1630.0594 200.81521,-326.2717 37.26131,-17.7857 -3.78909,41.1142 z"
         style="fill:#1b5264;fill-opacity:1;stroke:none"
         inkscape:transform-center-y="-171.2243"
         inkscape:transform-center-x="-120.19248" />
      <path
         inkscape:transform-center-x="-136.09475"
         inkscape:transform-center-y="-158.878"
         style="fill:#1b5264;fill-opacity:1;stroke:none"
         d="m 321.39093,1630.1666 231.24798,-305.4575 38.79841,-14.1217 -7.72359,40.5596 z"
         id="path4237"
         inkscape:connector-curvature="0"
         sodipodi:nodetypes="ccccc" />
      <path
         sodipodi:nodetypes="ccccc"
         inkscape:connector-curvature="0"
         id="path4239"
         d="m 321.29234,1630.2712 261.20611,-280.27 40.03674,-10.0895 -11.82144,39.5598 z"
         style="fill:#1b5264;fill-opacity:1;stroke:none"
         inkscape:transform-center-y="-144.16355"
         inkscape:transform-center-x="-151.5944" />
      <path
         inkscape:transform-center-x="-165.11039"
         inkscape:transform-center-y="-128.4623"
         style="fill:#1b5264;fill-opacity:1;stroke:none"
         d="m 321.18706,1630.3624 287.64701,-253.0594 40.8384,-6.08 -15.67638,38.1966 z"
         id="path4241"
         inkscape:connector-curvature="0"
         sodipodi:nodetypes="ccccc" />
      <path
         style="fill:#1b5264;fill-opacity:1;stroke:none"
         d="m 321.06988,1630.445 311.89441,-222.4903 41.245,-1.8946 -19.48021,36.4041 z"
         id="path4243"
         inkscape:connector-curvature="0"
         sodipodi:nodetypes="ccccc" />
      <path
         sodipodi:nodetypes="ccccc"
         inkscape:connector-curvature="0"
         id="path4245"
         d="m 320.9426,1630.5163 333.26114,-188.9894 41.21937,2.3874 -23.14594,34.1907 z"
         style="fill:#1b5264;fill-opacity:1;stroke:none"
         inkscape:transform-center-y="-93.233396"
         inkscape:transform-center-x="-187.86348" />
      <path
         inkscape:transform-center-x="-195.84082"
         inkscape:transform-center-y="-76.724496"
         style="fill:#1b5264;fill-opacity:1;stroke:none"
         d="m 320.8185,1630.5703 349.88436,-156.0796 40.79902,6.3385 -26.32526,31.8075 z"
         id="path4247"
         inkscape:connector-curvature="0"
         sodipodi:nodetypes="ccccc" />
      <path
         sodipodi:nodetypes="ccccc"
         inkscape:connector-curvature="0"
         id="path4249"
         d="m 320.68171,1630.6144 363.98284,-119.5676 39.93941,10.4681 -29.43306,28.9556 z"
         style="fill:#1b5264;fill-opacity:1;stroke:none"
         inkscape:transform-center-y="-58.424396"
         inkscape:transform-center-x="-202.32346" />
      <path
         inkscape:transform-center-x="-206.59244"
         inkscape:transform-center-y="-40.101046"
         style="fill:#1b5264;fill-opacity:1;stroke:none"
         d="m 320.54547,1630.6436 374.0245,-82.9793 38.70818,14.3672 -32.15274,25.9023 z"
         id="path4251"
         inkscape:connector-curvature="0"
         sodipodi:nodetypes="ccccc" />
      <path
         sodipodi:nodetypes="ccccc"
         inkscape:connector-curvature="0"
         id="path4253"
         d="m 320.40056,1630.6596 380.60087,-43.8526 37.01475,18.2934 -34.65932,22.4382 z"
         style="fill:#1b5264;fill-opacity:1;stroke:none" />
      <path
         inkscape:transform-center-x="-208.94367"
         inkscape:transform-center-y="17.587354"
         style="fill:#1b5264;fill-opacity:1;stroke:none"
         d="m 320.25471,1630.6604 383.09576,-4.1963 34.9209,22.0288 -36.79686,18.7277 z"
         id="path4255"
         inkscape:connector-curvature="0"
         sodipodi:nodetypes="ccccc" />
      <path
         sodipodi:nodetypes="ccccc"
         inkscape:connector-curvature="0"
         id="path4257"
         d="m 320.11995,1630.6476 381.72505,32.6481 32.64176,25.2835 -38.42665,15.1039 z"
         style="fill:#1b5264;fill-opacity:1;stroke:none"
         inkscape:transform-center-y="37.91035"
         inkscape:transform-center-x="-206.98398" />
      <path
         inkscape:transform-center-x="-202.80646"
         inkscape:transform-center-y="56.870208"
         style="fill:#1b5264;fill-opacity:1;stroke:none"
         d="m 319.97888,1630.6201 376.40209,71.4239 29.8918,28.4819 -39.767,11.1044 z"
         id="path4259"
         inkscape:connector-curvature="0"
         sodipodi:nodetypes="ccccc" />
      <path
         sodipodi:nodetypes="ccccc"
         inkscape:connector-curvature="0"
         id="path4261"
         d="m 319.84558,1630.5797 367.49164,108.304 26.9281,31.2988 -40.67041,7.1167 z"
         style="fill:#1b5264;fill-opacity:1;stroke:none"
         inkscape:transform-center-y="74.68445"
         inkscape:transform-center-x="-196.73607" />
      <path
         style="fill:#1b5264;fill-opacity:1;stroke:none"
         d="m 319.70916,1630.5227 354.10346,146.2558 23.49627,33.9509 -41.19269,2.8111 z"
         id="path4263"
         inkscape:connector-curvature="0"
         sodipodi:nodetypes="ccccc" />
      <path
         sodipodi:nodetypes="ccccc"
         inkscape:connector-curvature="0"
         id="path4265"
         d="m 319.58116,1630.4526 337.05067,182.1451 19.85342,36.2019 -41.26228,-1.4704 z"
         style="fill:#1b5264;fill-opacity:1;stroke:none"
         inkscape:transform-center-y="110.37111"
         inkscape:transform-center-x="-177.71382" />
      <path
         inkscape:transform-center-x="-166.28152"
         inkscape:transform-center-y="126.94271"
         style="fill:#1b5264;fill-opacity:1;stroke:none"
         d="m 319.46949,1630.3761 317.98121,213.7005 16.28161,37.9427 -40.92979,-5.43 z"
         id="path4267"
         inkscape:connector-curvature="0"
         sodipodi:nodetypes="ccccc" />
      <path
         sodipodi:nodetypes="ccccc"
         inkscape:connector-curvature="0"
         id="path4269"
         d="m 319.35955,1630.2836 294.51865,245.0279 12.32547,39.4058 -40.16215,-9.5775 z"
         style="fill:#1b5264;fill-opacity:1;stroke:none"
         inkscape:transform-center-y="143.24546"
         inkscape:transform-center-x="-152.46223" />
      <path
         inkscape:transform-center-x="-137.54604"
         inkscape:transform-center-y="157.62321"
         style="fill:#1b5264;fill-opacity:1;stroke:none"
         d="m 319.26252,1630.1836 268.83841,272.9575 8.36738,40.4317 -39.01785,-13.503 z"
         id="path4271"
         inkscape:connector-curvature="0"
         sodipodi:nodetypes="ccccc" />
      <path
         sodipodi:nodetypes="ccccc"
         inkscape:connector-curvature="0"
         id="path4273"
         d="m 319.17207,1630.0693 239.16754,299.2973 4.14104,41.0804 -37.41228,-17.466 z"
         style="fill:#1b5264;fill-opacity:1;stroke:none" />
      <path
         inkscape:transform-center-x="-102.21543"
         inkscape:transform-center-y="182.56481"
         style="fill:#1b5264;fill-opacity:1;stroke:none"
         d="m 319.09396,1629.9461 206.8817,322.4592 -0.13612,41.2882 -35.40198,-21.2469 z"
         id="path4275"
         inkscape:connector-curvature="0"
         sodipodi:nodetypes="ccccc" />
      <path
         sodipodi:nodetypes="ccccc"
         inkscape:connector-curvature="0"
         id="path4277"
         d="m 319.03322,1629.8251 174.92741,340.8523 -4.10423,41.0841 -33.19571,-24.5516 z"
         style="fill:#1b5264;fill-opacity:1;stroke:none"
         inkscape:transform-center-y="191.5383"
         inkscape:transform-center-x="-86.177543" />
      <path
         inkscape:transform-center-x="-68.281578"
         inkscape:transform-center-y="199.12181"
         style="fill:#1b5264;fill-opacity:1;stroke:none"
         d="m 318.98173,1629.6909 139.23847,356.9209 -8.2745,40.4509 -30.51745,-27.8102 z"
         id="path4279"
         inkscape:connector-curvature="0"
         sodipodi:nodetypes="ccccc" />
      <path
         sodipodi:nodetypes="ccccc"
         inkscape:connector-curvature="0"
         id="path4281"
         d="m 318.94522,1629.5565 103.25222,368.9429 -12.23493,39.4341 -27.61712,-30.6925 z"
         style="fill:#1b5264;fill-opacity:1;stroke:none"
         inkscape:transform-center-y="204.49"
         inkscape:transform-center-x="-50.251948" />
      <path
         sodipodi:nodetypes="ccccc"
         inkscape:connector-curvature="0"
         id="path4283"
         d="m 318.92163,1629.4151 65.19121,377.5316 -16.18248,37.9851 -24.35214,-33.3423 z"
         style="fill:#1b5264;fill-opacity:1;stroke:none" />
      <path
         inkscape:transform-center-x="-3.9325191"
         inkscape:transform-center-y="209.19345"
         style="fill:#1b5264;fill-opacity:1;stroke:none"
         d="m 318.91259,1629.2695 25.73803,382.2532 -20.02962,36.1047 -20.76781,-35.6853 z"
         id="path4285"
         inkscape:connector-curvature="0"
         sodipodi:nodetypes="ccccc" />
      <path
         sodipodi:nodetypes="ccccc"
         inkscape:connector-curvature="0"
         id="path4287"
         d="m 318.91775,1629.1342 -11.1251,382.9571 -23.40739,34.0122 -17.24146,-37.5162 z"
         style="fill:#1b5264;fill-opacity:1;stroke:none"
         inkscape:transform-center-y="208.36386"
         inkscape:transform-center-x="27.288613" />
      <path
         inkscape:transform-center-x="46.491116"
         inkscape:transform-center-y="205.37195"
         style="fill:#1b5264;fill-opacity:1;stroke:none"
         d="m 318.93735,1628.9919 -50.13888,379.8236 -26.75547,31.4465 -13.32381,-39.0795 z"
         id="path4289"
         inkscape:connector-curvature="0"
         sodipodi:nodetypes="ccccc" />
      <path
         sodipodi:nodetypes="ccccc"
         inkscape:connector-curvature="0"
         id="path4291"
         d="m 318.97013,1628.8564 -87.4618,373.0018 -29.73468,28.6459 -9.39303,-40.2057 z"
         style="fill:#1b5264;fill-opacity:1;stroke:none"
         inkscape:transform-center-y="200.42526"
         inkscape:transform-center-x="64.644013" />
      <path
         style="fill:#1b5264;fill-opacity:1;stroke:none"
         d="m 319.01857,1628.7189 -125.56889,361.9565 -32.53782,25.4171 -5.18455,-40.9617 z"
         id="path4293"
         inkscape:connector-curvature="0"
         sodipodi:nodetypes="ccccc" />
      <path
         sodipodi:nodetypes="ccccc"
         inkscape:connector-curvature="0"
         id="path4295"
         d="m 319.08111,1628.5872 -162.38286,347.0039 -34.99537,21.9104 -0.91412,-41.2784 z"
         style="fill:#1b5264;fill-opacity:1;stroke:none"
         inkscape:transform-center-y="183.78936"
         inkscape:transform-center-x="100.38445" />
      <path
         inkscape:transform-center-x="117.13127"
         inkscape:transform-center-y="173.3328"
         style="fill:#1b5264;fill-opacity:1;stroke:none"
         d="m 319.15109,1628.4712 -194.98654,329.7881 -36.939422,18.4451 3.057976,-41.1751 z"
         id="path4297"
         inkscape:connector-curvature="0"
         sodipodi:nodetypes="ccccc" />
      <path
         sodipodi:nodetypes="ccccc"
         inkscape:connector-curvature="0"
         id="path4299"
         d="m 319.23706,1628.3561 -227.616233,308.1732 -38.628541,14.58 7.243042,-40.648 z"
         style="fill:#1b5264;fill-opacity:1;stroke:none"
         inkscape:transform-center-y="160.47771"
         inkscape:transform-center-x="134.20472" />
      <path
         inkscape:transform-center-x="149.4196"
         inkscape:transform-center-y="146.4165"
         style="fill:#1b5264;fill-opacity:1;stroke:none"
         d="m 319.33128,1628.2535 -256.981794,284.1483 -39.881201,10.6877 11.227958,-39.7324 z"
         id="path4301"
         inkscape:connector-curvature="0"
         sodipodi:nodetypes="ccccc" />
      <path
         sodipodi:nodetypes="ccccc"
         inkscape:connector-curvature="0"
         id="path4303"
         d="m 319.43772,1628.1586 -284.41581,256.686 -40.7580125,6.5971 15.1909702,-38.3923 z"
         style="fill:#1b5264;fill-opacity:1;stroke:none" />
      <path
         inkscape:transform-center-x="176.1104"
         inkscape:transform-center-y="112.91194"
         style="fill:#1b5264;fill-opacity:1;stroke:none"
         d="m 319.55608,1628.0732 -309.47211,225.8473 -41.222075,2.3402 19.085613,-36.6125 z"
         id="path4305"
         inkscape:connector-curvature="0"
         sodipodi:nodetypes="ccccc" />
      <path
         sodipodi:nodetypes="ccccc"
         inkscape:connector-curvature="0"
         id="path4307"
         d="m 319.6732,1628.0053 -329.748501,195.0536 -41.256179,-1.6331 22.516645,-34.6084 z"
         style="fill:#1b5264;fill-opacity:1;stroke:none"
         inkscape:transform-center-y="96.277098"
         inkscape:transform-center-x="186.14853" />
      <path
         inkscape:transform-center-x="194.91669"
         inkscape:transform-center-y="78.887148"
         style="fill:#1b5264;fill-opacity:1;stroke:none"
         d="m 319.80401,1627.9459 -347.928389,160.3925 -40.874211,-5.8338 25.930007,-32.1304 z"
         id="path4309"
         inkscape:connector-curvature="0"
         sodipodi:nodetypes="ccccc" />
      <path
         sodipodi:nodetypes="ccccc"
         inkscape:connector-curvature="0"
         id="path4311"
         d="m 319.93603,1627.9014 -362.086812,125.1919 -40.096766,-9.8481 28.980874,-29.408 z"
         style="fill:#1b5264;fill-opacity:1;stroke:none"
         inkscape:transform-center-y="61.242352"
         inkscape:transform-center-x="201.47515" />
      <path
         style="fill:#1b5264;fill-opacity:1;stroke:none"
         d="m 320.07814,1627.8689 -373.092741,87.0735 -38.863393,-13.9421 31.867071,-26.2532 z"
         id="path4313"
         inkscape:connector-curvature="0"
         sodipodi:nodetypes="ccccc" />
      <path
         sodipodi:nodetypes="ccccc"
         inkscape:connector-curvature="0"
         id="path4315"
         d="m 320.22296,1627.8514 -380.104705,47.9624 -37.21017,-17.8923 34.414709,-22.8114 z"
         style="fill:#1b5264;fill-opacity:1;stroke:none"
         inkscape:transform-center-y="22.577598"
         inkscape:transform-center-x="208.75387" />
      <path
         inkscape:transform-center-x="209.09755"
         inkscape:transform-center-y="-10.5954"
         style="fill:#1b5264;fill-opacity:1;stroke:none"
         d="m 320.35832,1627.8487 -382.954809,11.2029 -35.318154,-21.3863 36.448164,-19.3977 z"
         id="path4317"
         inkscape:connector-curvature="0"
         sodipodi:nodetypes="ccccc" />
      <path
         sodipodi:nodetypes="ccccc"
         inkscape:connector-curvature="0"
         id="path4319"
         d="m 320.50162,1627.8599 -382.099403,-27.9272 -32.951806,-24.8781 38.236873,-15.5776 z"
         style="fill:#1b5264;fill-opacity:1;stroke:none"
         inkscape:transform-center-y="-35.586558"
         inkscape:transform-center-x="207.34337" />
      <path
         inkscape:transform-center-x="203.57718"
         inkscape:transform-center-y="-54.02955"
         style="fill:#1b5264;fill-opacity:1;stroke:none"
         d="m 320.63864,1627.8848 -377.463368,-65.5842 -30.329512,-28.0154 39.590341,-11.7191 z"
         id="path4321"
         inkscape:connector-curvature="0"
         sodipodi:nodetypes="ccccc" />
      <path
         style="fill:#1b5264;fill-opacity:1;stroke:none"
         d="m 320.77643,1627.9244 -368.83535,-103.6363 -27.322638,-30.9551 40.577007,-7.6316 z"
         id="path4323"
         inkscape:connector-curvature="0"
         sodipodi:nodetypes="ccccc" />
      <path
         sodipodi:nodetypes="ccccc"
         inkscape:connector-curvature="0"
         id="path4325"
         d="m 320.91174,1627.979 -356.11753,-141.2808 -23.969574,-33.6185 41.149299,-3.3878 z"
         style="fill:#1b5264;fill-opacity:1;stroke:none"
         inkscape:transform-center-y="-90.419553"
         inkscape:transform-center-x="189.45119" />
      <path
         inkscape:transform-center-x="180.04519"
         inkscape:transform-center-y="-106.52566"
         style="fill:#1b5264;fill-opacity:1;stroke:none"
         d="m 321.03166,1628.0418 -340.887856,-174.8582 -20.627064,-35.7667 41.28429631,0.5832 z"
         id="path4327"
         inkscape:connector-curvature="0"
         sodipodi:nodetypes="ccccc" />
      <path
         sodipodi:nodetypes="ccccc"
         inkscape:connector-curvature="0"
         id="path4329"
         d="M 321.15167,1628.1208 -0.11708091,1419.3954 -16.98728,1381.7107 l 41.009339,4.7922 z"
         style="fill:#1b5264;fill-opacity:1;stroke:none"
         inkscape:transform-center-y="-124.33925"
         inkscape:transform-center-x="168.23718" />
      <path
         inkscape:transform-center-x="155.1136"
         inkscape:transform-center-y="-140.37011"
         style="fill:#1b5264;fill-opacity:1;stroke:none"
         d="M 321.25987,1628.2086 22.211756,1388.7297 9.1517002,1349.5612 l 40.3341838,8.8251 z"
         id="path4331"
         inkscape:connector-curvature="0"
         sodipodi:nodetypes="ccccc" />
      <path
         sodipodi:nodetypes="ccccc"
         inkscape:connector-curvature="0"
         id="path4333"
         d="M 321.36313,1628.3115 48.685485,1359.189 l -8.939174,-40.3092 39.205352,12.9492 z"
         style="fill:#1b5264;fill-opacity:1;stroke:none" />
      <path
         inkscape:transform-center-x="122.89078"
         inkscape:transform-center-y="-169.29816"
         style="fill:#1b5264;fill-opacity:1;stroke:none"
         d="M 321.4551,1628.4247 78.118302,1332.5073 73.402121,1291.489 111.05544,1308.4292 z"
         id="path4335"
         inkscape:connector-curvature="0"
         sodipodi:nodetypes="ccccc" />
      <path
         sodipodi:nodetypes="ccccc"
         inkscape:connector-curvature="0"
         id="path4337"
         d="M 321.52969,1628.5377 107.7646,1310.6 l -0.75155,-41.2817 35.85058,20.4811 z"
         style="fill:#1b5264;fill-opacity:1;stroke:none"
         inkscape:transform-center-y="-180.327"
         inkscape:transform-center-x="106.04801" />
      <path
         inkscape:transform-center-x="88.828472"
         inkscape:transform-center-y="-190.20576"
         style="fill:#1b5264;fill-opacity:1;stroke:none"
         d="m 321.59658,1628.6649 -180.21133,-338.0883 3.46423,-41.143 33.57364,24.032 z"
         id="path4339"
         inkscape:connector-curvature="0"
         sodipodi:nodetypes="ccccc" />
      <path
         sodipodi:nodetypes="ccccc"
         inkscape:connector-curvature="0"
         id="path4341"
         d="m 321.64864,1628.7941 -145.88699,-354.2554 7.51672,-40.5984 31.03216,27.2347 z"
         style="fill:#1b5264;fill-opacity:1;stroke:none"
         inkscape:transform-center-y="-197.8878"
         inkscape:transform-center-x="71.614238" />
      <path
         inkscape:transform-center-x="52.783398"
         inkscape:transform-center-y="-203.86495"
         style="fill:#1b5264;fill-opacity:1;stroke:none"
         d="m 321.68932,1628.9346 -108.30667,-367.4909 11.69245,-39.5982 28.03587,30.3103 z"
         id="path4343"
         inkscape:connector-curvature="0"
         sodipodi:nodetypes="ccccc" />
      <path
         sodipodi:nodetypes="ccccc"
         inkscape:connector-curvature="0"
         id="path4345"
         d="m 320.307,1631.9767 -69.17963,-379.8538 21.12944,-37.3492 29.07766,34.2579 z"
         style="fill:#1b5264;fill-opacity:1;stroke:none"
         inkscape:transform-center-y="-208.7082"
         inkscape:transform-center-x="32.858511" />
      <path
         transform="matrix(0.97101449,0,0,0.97101449,9.264124,47.309847)"
         d="m 709.93521,1632.1897 c 0,215.5694 -174.75353,390.3229 -390.32294,390.3229 -215.5694,0 -390.322933,-174.7535 -390.322933,-390.3229 0,-215.5694 174.753533,-390.3229 390.322933,-390.3229 215.56941,0 390.32294,174.7535 390.32294,390.3229 z"
         sodipodi:ry="390.32294"
         sodipodi:rx="390.32294"
         sodipodi:cy="1632.1897"
         sodipodi:cx="319.61227"
         id="path4347"
         style="fill:#1b5264;fill-opacity:1;stroke:none"
         sodipodi:type="arc" />
    </g>
    <g
       id="g4543"
       transform="matrix(0.79061989,0,0,0.53919331,73.26489,395.18368)">
      <path
         sodipodi:nodetypes="cccccccccccc"
         inkscape:connector-curvature="0"
         id="path3913"
         d="m 160.98885,737.99647 c -23.78591,1.60957 -47.56464,3.45363 -71.332936,5.23357 -1.299718,0.51598 -0.396129,1.86677 0.49617,2.31772 12.920926,10.9695 26.006546,21.75403 38.939156,32.71324 -10.95632,13.67075 -22.03384,27.24886 -32.862772,41.01899 -0.486759,1.30826 1.188205,1.4455 2.030163,1.13215 43.944969,-5.69115 88.306459,-7.06864 132.547459,-8.90775 2.57548,-0.16881 5.18176,-0.0679 7.74162,-0.34663 1.23929,-0.44738 4.1565,-2.43734 3.09722,-2.28975 -23.47282,-5.87195 -50.89045,-10.94181 -74.37579,-16.72784 -1.5452,-17.78444 -2.97332,-35.57879 -4.45194,-53.36887 -0.19341,-0.87098 -1.13096,-0.76826 -1.82835,-0.77483 z"
         style="fill:#ddd2b5;fill-opacity:1;stroke:#e9e1c4;stroke-width:0.2174992;stroke-opacity:1" />
      <path
         sodipodi:nodetypes="cscccc"
         inkscape:connector-curvature="0"
         id="path3883"
         d="m 243.0914,810.75568 c -27.86645,1.15236 -54.65927,2.09432 -81.02205,3.62316 -22.03616,1.27794 -44.01364,3.10026 -66.712529,6.15716 l 34.041509,-42.34644 -41.370902,-34.60391 74.129262,-5.53663"
         style="fill:none;stroke:#ddd2b5;stroke-width:0.86999679px;stroke-linecap:butt;stroke-linejoin:miter;stroke-opacity:1" />
    </g>
    <g
       id="g4539"
       transform="matrix(0.88241723,0,0,0.53919331,41.143769,395.18368)">
      <path
         sodipodi:nodetypes="ccc"
         inkscape:connector-curvature="0"
         id="path3881"
         d="m 241.4249,787.58972 1.23037,23.05062 -75.95776,-18.36533"
         style="fill:none;stroke:#ebc395;stroke-width:0.86999679px;stroke-linecap:butt;stroke-linejoin:miter;stroke-opacity:1" />
      <path
         sodipodi:nodetypes="cccccccc"
         inkscape:connector-curvature="0"
         id="path3895"
         d="m 241.62011,787.75615 c -17.32424,-15.83738 -50.84346,-4.3194 -73.77258,-2.43508 -0.95692,-0.10613 0.44218,7.41137 1.42252,7.48865 23.86243,5.82924 48.6604,12.08565 72.55286,17.78256 1.23151,0.0485 0.89923,-1.48241 0.89874,-2.2829 -0.33072,-6.79409 -0.72678,-19.67511 -1.08618,-26.46783 -0.25637,-1.09953 0.32075,2.11879 -0.45039,1.99961 z"
         style="fill:#ebc395;fill-opacity:1;stroke:none" />
    </g>
    <g
       id="g4547"
       transform="matrix(0.79061989,0,0,0.53919331,73.26489,395.18368)">
      <path
         sodipodi:nodetypes="cccccccccccc"
         inkscape:connector-curvature="0"
         id="path3915"
         d="m 537.48804,737.22451 c -1.36978,0.42825 -0.90021,2.40867 -1.18774,3.54036 -1.29685,17.11728 -2.29567,34.25616 -3.52928,51.37819 -23.52908,5.63574 -50.52763,11.86944 -74.02315,17.62943 -1.14534,0.48753 2.90008,1.23203 4.05566,0.98444 19.93736,0.98766 39.89496,1.54973 59.83153,2.57234 26.8469,1.27565 53.72897,3.30951 80.34742,6.75564 1.04922,-0.0656 0.88804,-1.47753 0.15743,-1.95144 -10.7155,-13.52293 -21.62368,-26.90503 -32.34051,-40.42692 12.92494,-11.04858 26.18976,-21.72194 38.98892,-32.90973 0.74922,-0.43215 1.40309,-1.81151 0.17452,-2.08725 -24.15561,-1.85531 -48.31302,-3.73633 -72.4748,-5.48506 z"
         style="fill:#ddd2b5;fill-opacity:1;stroke:#481a00;stroke-width:0.2174992;stroke-opacity:1" />
      <path
         style="fill:none;stroke:#ddd2b5;stroke-width:0.86999679px;stroke-linecap:butt;stroke-linejoin:miter;stroke-opacity:1"
         d="m 536.36507,737.33095 75.43428,5.75412 -41.37095,34.60391 34.04149,42.34644 c -49.85447,-6.71399 -96.97162,-7.54938 -148.13108,-9.66498"
         id="path3885"
         inkscape:connector-curvature="0"
         sodipodi:nodetypes="ccccc" />
    </g>
    <g
       id="g4535"
       transform="matrix(0.88241723,0,0,0.53919331,41.143769,395.18368)">
      <path
         style="fill:none;stroke:#ebc395;stroke-width:0.86999679px;stroke-linecap:butt;stroke-linejoin:miter;stroke-opacity:1"
         d="m 457.94661,787.24387 -1.23036,22.99238 76.60865,-17.93966"
         id="path3887"
         inkscape:connector-curvature="0"
         sodipodi:nodetypes="ccc" />
      <path
         sodipodi:nodetypes="cccccccc"
         inkscape:connector-curvature="0"
         id="path3897"
         d="m 458.60476,787.4365 c -1.20478,0.0917 -0.80646,1.61544 -0.97082,2.41266 -0.38801,6.54054 -0.70545,13.10283 -1.06696,19.63291 0.0893,1.01883 1.28446,0.78032 1.93753,0.5269 23.80542,-5.62088 47.63896,-11.12904 71.43717,-16.77632 0.93492,-0.29839 1.72411,-2.23756 0.85378,-2.05936 -23.37191,-1.81392 -48.06395,-2.60389 -71.4842,-3.73679 -0.23536,-8.1e-4 -0.47133,-0.0127 -0.7065,0 z"
         style="fill:#ebc395;fill-opacity:1;stroke:none" />
    </g>
    <path
       sodipodi:type="arc"
       style="fill:#efefef;fill-opacity:1;stroke:none"
       id="path4425"
       sodipodi:cx="350.72498"
       sodipodi:cy="667.69611"
       sodipodi:rx="179.60512"
       sodipodi:ry="179.60512"
       d="m 530.33009,667.69611 a 179.60512,179.60512 0 1 1 -359.21023,0 179.60512,179.60512 0 1 1 359.21023,0 z"
       transform="matrix(1.0250086,0,0,1.0250086,-11.225881,8.4089402)" />
    <path
       transform="matrix(1.019364,0,0,1.019364,-9.246179,12.177755)"
       d="m 530.33009,667.69611 a 179.60512,179.60512 0 1 1 -359.21023,0 179.60512,179.60512 0 1 1 359.21023,0 z"
       sodipodi:ry="179.60512"
       sodipodi:rx="179.60512"
       sodipodi:cy="667.69611"
       sodipodi:cx="350.72498"
       id="path4427"
       style="fill:#1b5264;fill-opacity:1;stroke:none"
       sodipodi:type="arc" />
    <path
       sodipodi:type="arc"
       style="fill:#efefef;fill-opacity:1;stroke:none"
       id="path4429"
       sodipodi:cx="350.72498"
       sodipodi:cy="667.69611"
       sodipodi:rx="179.60512"
       sodipodi:ry="179.60512"
       d="m 530.33009,667.69611 a 179.60512,179.60512 0 1 1 -359.21023,0 179.60512,179.60512 0 1 1 359.21023,0 z"
       transform="matrix(0.90921314,0,0,0.90921314,29.386479,85.725112)" />
    <path
       style="fill:#e3dcbf;fill-opacity:1;stroke:#e3dcbf;stroke-width:0.62777907px;stroke-linecap:butt;stroke-linejoin:miter;stroke-opacity:1"
       d="m 181.62776,776.20292 c 111.09497,-4.03402 222.18997,-5.65794 333.28495,-0.0683 l -4.60583,46.20625 c -107.6599,-5.60517 -215.31981,-6.00892 -322.97971,0 z"
       id="path3879"
       inkscape:connector-curvature="0"
       sodipodi:nodetypes="ccccc" />
  </g>
</svg>
